<svg width="1158" height="280" viewBox="0 0 1158 280" fill="none" xmlns="http://www.w3.org/2000/svg">
<path d="M316.25 136.79C305.597 136.79 296.477 134.68 288.892 130.462C281.307 126.2 275.49 120.277 271.442 112.692C267.393 105.064 265.369 96.2216 265.369 86.1648C265.369 76.108 267.393 67.2869 271.442 59.7017C275.49 52.0739 281.307 46.1506 288.892 41.9318C296.477 37.6705 305.597 35.5398 316.25 35.5398C325.881 35.5398 334.212 37.2869 341.243 40.7812C348.317 44.233 353.793 49.1335 357.67 55.483C361.548 61.7898 363.509 69.2045 363.551 77.7273H330.824C330.355 72.571 328.864 68.6506 326.349 65.9659C323.878 63.2386 320.682 61.875 316.761 61.875C313.693 61.875 311.009 62.7699 308.707 64.5597C306.406 66.3068 304.616 68.9702 303.338 72.5497C302.06 76.0866 301.42 80.5398 301.42 85.9091C301.42 91.2784 302.06 95.7528 303.338 99.3324C304.616 102.869 306.406 105.533 308.707 107.322C311.009 109.07 313.693 109.943 316.761 109.943C319.361 109.943 321.662 109.347 323.665 108.153C325.668 106.918 327.287 105.128 328.523 102.784C329.801 100.398 330.568 97.5 330.824 94.0909H363.551C363.423 102.741 361.442 110.284 357.607 116.719C353.771 123.111 348.338 128.054 341.307 131.548C334.318 135.043 325.966 136.79 316.25 136.79ZM539.086 136.278C532.098 136.278 525.663 134.446 519.782 130.781C513.944 127.116 509.257 121.555 505.72 114.098C502.225 106.641 500.478 97.2443 500.478 85.9091C500.478 74.0625 502.311 64.4318 505.975 57.017C509.683 49.6023 514.456 44.169 520.294 40.7173C526.174 37.2656 532.353 35.5398 538.831 35.5398C543.689 35.5398 547.95 36.392 551.615 38.0966C555.279 39.7585 558.348 41.9957 560.819 44.8082C563.291 47.5781 565.166 50.625 566.444 53.9489H566.956V4.09091H602.24V135H567.211V118.892H566.444C565.081 122.216 563.12 125.199 560.564 127.841C558.049 130.44 554.981 132.507 551.359 134.041C547.779 135.533 543.689 136.278 539.086 136.278ZM552.126 109.176C555.365 109.176 558.135 108.239 560.436 106.364C562.779 104.446 564.569 101.761 565.805 98.3097C567.083 94.8153 567.723 90.6818 567.723 85.9091C567.723 81.0511 567.083 76.8963 565.805 73.4446C564.569 69.9503 562.779 67.2869 560.436 65.4545C558.135 63.5795 555.365 62.642 552.126 62.642C548.887 62.642 546.118 63.5795 543.816 65.4545C541.558 67.2869 539.811 69.9503 538.575 73.4446C537.382 76.8963 536.785 81.0511 536.785 85.9091C536.785 90.767 537.382 94.9432 538.575 98.4375C539.811 101.889 541.558 104.553 543.816 106.428C546.118 108.26 548.887 109.176 552.126 109.176ZM663.008 136.79C652.525 136.79 643.491 134.787 635.905 130.781C628.363 126.733 622.546 120.937 618.455 113.395C614.407 105.81 612.383 96.733 612.383 86.1648C612.383 76.0227 614.428 67.1591 618.519 59.5739C622.61 51.9886 628.384 46.0866 635.841 41.8679C643.299 37.6491 652.099 35.5398 662.241 35.5398C669.655 35.5398 676.367 36.6903 682.375 38.9915C688.384 41.2926 693.519 44.6378 697.78 49.027C702.042 53.3736 705.323 58.6577 707.624 64.8793C709.925 71.1008 711.076 78.1108 711.076 85.9091V94.0909H623.377V74.6591H678.604C678.562 71.8466 677.837 69.375 676.431 67.2443C675.067 65.071 673.214 63.3878 670.87 62.1946C668.569 60.9588 665.948 60.3409 663.008 60.3409C660.152 60.3409 657.532 60.9588 655.145 62.1946C652.759 63.3878 650.841 65.0497 649.393 67.1804C647.986 69.3111 647.241 71.804 647.155 74.6591V95.625C647.155 98.7784 647.816 101.591 649.137 104.062C650.458 106.534 652.354 108.473 654.826 109.879C657.297 111.286 660.28 111.989 663.775 111.989C666.204 111.989 668.42 111.648 670.422 110.966C672.468 110.284 674.215 109.304 675.664 108.026C677.113 106.705 678.178 105.128 678.86 103.295H711.076C709.968 110.114 707.347 116.037 703.214 121.065C699.08 126.051 693.604 129.929 686.786 132.699C680.01 135.426 672.084 136.79 663.008 136.79Z" fill="white"/>
<path d="M316.25 136.79C305.597 136.79 296.477 134.68 288.892 130.462C281.307 126.2 275.49 120.277 271.442 112.692C267.393 105.064 265.369 96.2216 265.369 86.1648C265.369 76.108 267.393 67.2869 271.442 59.7017C275.49 52.0739 281.307 46.1506 288.892 41.9318C296.477 37.6705 305.597 35.5398 316.25 35.5398C325.881 35.5398 334.212 37.2869 341.243 40.7812C348.317 44.233 353.793 49.1335 357.67 55.483C361.548 61.7898 363.509 69.2045 363.551 77.7273H330.824C330.355 72.571 328.864 68.6506 326.349 65.9659C323.878 63.2386 320.682 61.875 316.761 61.875C313.693 61.875 311.009 62.7699 308.707 64.5597C306.406 66.3068 304.616 68.9702 303.338 72.5497C302.06 76.0866 301.42 80.5398 301.42 85.9091C301.42 91.2784 302.06 95.7528 303.338 99.3324C304.616 102.869 306.406 105.533 308.707 107.322C311.009 109.07 313.693 109.943 316.761 109.943C319.361 109.943 321.662 109.347 323.665 108.153C325.668 106.918 327.287 105.128 328.523 102.784C329.801 100.398 330.568 97.5 330.824 94.0909H363.551C363.423 102.741 361.442 110.284 357.607 116.719C353.771 123.111 348.338 128.054 341.307 131.548C334.318 135.043 325.966 136.79 316.25 136.79ZM539.086 136.278C532.098 136.278 525.663 134.446 519.782 130.781C513.944 127.116 509.257 121.555 505.72 114.098C502.225 106.641 500.478 97.2443 500.478 85.9091C500.478 74.0625 502.311 64.4318 505.975 57.017C509.683 49.6023 514.456 44.169 520.294 40.7173C526.174 37.2656 532.353 35.5398 538.831 35.5398C543.689 35.5398 547.95 36.392 551.615 38.0966C555.279 39.7585 558.348 41.9957 560.819 44.8082C563.291 47.5781 565.166 50.625 566.444 53.9489H566.956V4.09091H602.24V135H567.211V118.892H566.444C565.081 122.216 563.12 125.199 560.564 127.841C558.049 130.44 554.981 132.507 551.359 134.041C547.779 135.533 543.689 136.278 539.086 136.278ZM552.126 109.176C555.365 109.176 558.135 108.239 560.436 106.364C562.779 104.446 564.569 101.761 565.805 98.3097C567.083 94.8153 567.723 90.6818 567.723 85.9091C567.723 81.0511 567.083 76.8963 565.805 73.4446C564.569 69.9503 562.779 67.2869 560.436 65.4545C558.135 63.5795 555.365 62.642 552.126 62.642C548.887 62.642 546.118 63.5795 543.816 65.4545C541.558 67.2869 539.811 69.9503 538.575 73.4446C537.382 76.8963 536.785 81.0511 536.785 85.9091C536.785 90.767 537.382 94.9432 538.575 98.4375C539.811 101.889 541.558 104.553 543.816 106.428C546.118 108.26 548.887 109.176 552.126 109.176ZM663.008 136.79C652.525 136.79 643.491 134.787 635.905 130.781C628.363 126.733 622.546 120.937 618.455 113.395C614.407 105.81 612.383 96.733 612.383 86.1648C612.383 76.0227 614.428 67.1591 618.519 59.5739C622.61 51.9886 628.384 46.0866 635.841 41.8679C643.299 37.6491 652.099 35.5398 662.241 35.5398C669.655 35.5398 676.367 36.6903 682.375 38.9915C688.384 41.2926 693.519 44.6378 697.78 49.027C702.042 53.3736 705.323 58.6577 707.624 64.8793C709.925 71.1008 711.076 78.1108 711.076 85.9091V94.0909H623.377V74.6591H678.604C678.562 71.8466 677.837 69.375 676.431 67.2443C675.067 65.071 673.214 63.3878 670.87 62.1946C668.569 60.9588 665.948 60.3409 663.008 60.3409C660.152 60.3409 657.532 60.9588 655.145 62.1946C652.759 63.3878 650.841 65.0497 649.393 67.1804C647.986 69.3111 647.241 71.804 647.155 74.6591V95.625C647.155 98.7784 647.816 101.591 649.137 104.062C650.458 106.534 652.354 108.473 654.826 109.879C657.297 111.286 660.28 111.989 663.775 111.989C666.204 111.989 668.42 111.648 670.422 110.966C672.468 110.284 674.215 109.304 675.664 108.026C677.113 106.705 678.178 105.128 678.86 103.295H711.076C709.968 110.114 707.347 116.037 703.214 121.065C699.08 126.051 693.604 129.929 686.786 132.699C680.01 135.426 672.084 136.79 663.008 136.79Z" fill="#83C5BE"/>
<path d="M296.307 276.534C290.043 276.534 284.503 275.511 279.688 273.466C274.915 271.378 271.165 268.224 268.438 264.006C265.71 259.787 264.347 254.418 264.347 247.898C264.347 242.528 265.263 237.947 267.095 234.155C268.928 230.32 271.484 227.188 274.766 224.759C278.047 222.33 281.861 220.476 286.207 219.197C290.597 217.919 295.327 217.088 300.398 216.705C305.895 216.278 310.305 215.767 313.629 215.17C316.996 214.531 319.425 213.658 320.916 212.55C322.408 211.399 323.153 209.886 323.153 208.011V207.756C323.153 205.199 322.173 203.239 320.213 201.875C318.253 200.511 315.739 199.83 312.67 199.83C309.304 199.83 306.555 200.575 304.425 202.067C302.337 203.516 301.08 205.753 300.653 208.778H268.182C268.608 202.812 270.504 197.315 273.871 192.287C277.28 187.216 282.244 183.168 288.764 180.142C295.284 177.074 303.423 175.54 313.182 175.54C320.213 175.54 326.52 176.371 332.102 178.033C337.685 179.652 342.436 181.932 346.357 184.872C350.277 187.77 353.26 191.179 355.305 195.099C357.393 198.977 358.438 203.196 358.438 207.756V275H325.455V261.193H324.688C322.727 264.858 320.341 267.82 317.528 270.078C314.759 272.337 311.584 273.977 308.004 275C304.467 276.023 300.568 276.534 296.307 276.534ZM307.812 254.29C310.497 254.29 313.011 253.736 315.355 252.628C317.741 251.52 319.68 249.922 321.172 247.834C322.663 245.746 323.409 243.21 323.409 240.227V232.045C322.472 232.429 321.47 232.791 320.405 233.132C319.382 233.473 318.274 233.793 317.081 234.091C315.93 234.389 314.695 234.666 313.374 234.922C312.095 235.178 310.753 235.412 309.347 235.625C306.619 236.051 304.382 236.754 302.635 237.734C300.93 238.672 299.652 239.844 298.8 241.25C297.99 242.614 297.585 244.148 297.585 245.852C297.585 248.58 298.544 250.668 300.462 252.116C302.379 253.565 304.83 254.29 307.812 254.29ZM407.236 276.278C400.248 276.278 393.813 274.446 387.932 270.781C382.094 267.116 377.407 261.555 373.87 254.098C370.375 246.641 368.628 237.244 368.628 225.909C368.628 214.062 370.461 204.432 374.125 197.017C377.833 189.602 382.606 184.169 388.444 180.717C394.324 177.266 400.503 175.54 406.981 175.54C411.839 175.54 416.1 176.392 419.765 178.097C423.429 179.759 426.498 181.996 428.969 184.808C431.441 187.578 433.316 190.625 434.594 193.949H435.106V144.091H470.39V275H435.361V258.892H434.594C433.231 262.216 431.27 265.199 428.714 267.841C426.199 270.44 423.131 272.507 419.509 274.041C415.929 275.533 411.839 276.278 407.236 276.278ZM420.276 249.176C423.515 249.176 426.285 248.239 428.586 246.364C430.929 244.446 432.719 241.761 433.955 238.31C435.233 234.815 435.873 230.682 435.873 225.909C435.873 221.051 435.233 216.896 433.955 213.445C432.719 209.95 430.929 207.287 428.586 205.455C426.285 203.58 423.515 202.642 420.276 202.642C417.037 202.642 414.268 203.58 411.966 205.455C409.708 207.287 407.961 209.95 406.725 213.445C405.532 216.896 404.935 221.051 404.935 225.909C404.935 230.767 405.532 234.943 406.725 238.438C407.961 241.889 409.708 244.553 411.966 246.428C414.268 248.26 417.037 249.176 420.276 249.176ZM583.061 176.818L550.078 275H509.169L476.186 176.818H513.26L529.112 241.761H530.135L545.987 176.818H583.061ZM633.554 276.79C623.071 276.79 614.037 274.787 606.451 270.781C598.909 266.733 593.092 260.937 589.001 253.395C584.953 245.81 582.929 236.733 582.929 226.165C582.929 216.023 584.974 207.159 589.065 199.574C593.156 191.989 598.93 186.087 606.388 181.868C613.845 177.649 622.645 175.54 632.787 175.54C640.201 175.54 646.913 176.69 652.922 178.991C658.93 181.293 664.065 184.638 668.326 189.027C672.588 193.374 675.869 198.658 678.17 204.879C680.471 211.101 681.622 218.111 681.622 225.909V234.091H593.923V214.659H649.15C649.108 211.847 648.383 209.375 646.977 207.244C645.613 205.071 643.76 203.388 641.416 202.195C639.115 200.959 636.494 200.341 633.554 200.341C630.699 200.341 628.078 200.959 625.691 202.195C623.305 203.388 621.388 205.05 619.939 207.18C618.532 209.311 617.787 211.804 617.701 214.659V235.625C617.701 238.778 618.362 241.591 619.683 244.062C621.004 246.534 622.9 248.473 625.372 249.879C627.843 251.286 630.826 251.989 634.321 251.989C636.75 251.989 638.966 251.648 640.968 250.966C643.014 250.284 644.761 249.304 646.21 248.026C647.659 246.705 648.724 245.128 649.406 243.295H681.622C680.514 250.114 677.893 256.037 673.76 261.065C669.626 266.051 664.15 269.929 657.332 272.699C650.557 275.426 642.63 276.79 633.554 276.79ZM727.704 219.773V275H692.42V176.818H725.914V195.483H726.937C729.068 189.261 732.818 184.382 738.187 180.845C743.599 177.308 749.906 175.54 757.107 175.54C764.053 175.54 770.083 177.138 775.197 180.334C780.353 183.487 784.338 187.834 787.15 193.374C790.005 198.913 791.411 205.241 791.369 212.358V275H756.085V219.773C756.127 214.915 754.892 211.101 752.377 208.331C749.906 205.561 746.454 204.176 742.022 204.176C739.125 204.176 736.589 204.815 734.416 206.094C732.285 207.33 730.644 209.119 729.494 211.463C728.343 213.764 727.747 216.534 727.704 219.773ZM863.738 176.818V202.386H799.051V176.818H863.738ZM811.579 153.295H846.863V243.423C846.863 244.787 847.098 245.938 847.566 246.875C848.035 247.77 848.76 248.452 849.74 248.92C850.72 249.347 851.977 249.56 853.511 249.56C854.576 249.56 855.812 249.432 857.218 249.176C858.667 248.92 859.733 248.707 860.414 248.537L865.528 273.338C863.951 273.807 861.693 274.382 858.752 275.064C855.855 275.746 852.403 276.193 848.397 276.406C840.301 276.832 833.504 276.001 828.007 273.913C822.51 271.783 818.376 268.437 815.606 263.878C812.836 259.318 811.494 253.608 811.579 246.747V153.295ZM938.201 232.045V176.818H973.485V275H939.991V256.335H938.968C936.838 262.599 933.109 267.5 927.782 271.037C922.455 274.531 916.127 276.278 908.798 276.278C901.937 276.278 895.928 274.702 890.772 271.548C885.659 268.395 881.674 264.048 878.819 258.509C876.007 252.969 874.579 246.619 874.536 239.46V176.818H909.82V232.045C909.863 236.903 911.099 240.717 913.528 243.487C915.999 246.257 919.451 247.642 923.883 247.642C926.823 247.642 929.359 247.024 931.49 245.788C933.663 244.51 935.325 242.72 936.475 240.419C937.668 238.075 938.244 235.284 938.201 232.045ZM987.831 275V176.818H1022.09V195.483H1023.11C1024.9 188.58 1027.74 183.53 1031.62 180.334C1035.54 177.138 1040.12 175.54 1045.36 175.54C1046.89 175.54 1048.41 175.668 1049.9 175.923C1051.43 176.136 1052.9 176.456 1054.31 176.882V206.989C1052.56 206.392 1050.41 205.945 1047.85 205.646C1045.3 205.348 1043.1 205.199 1041.27 205.199C1037.82 205.199 1034.71 205.987 1031.94 207.564C1029.21 209.098 1027.06 211.271 1025.48 214.084C1023.9 216.854 1023.11 220.114 1023.11 223.864V275H987.831ZM1103.7 276.79C1093.22 276.79 1084.18 274.787 1076.6 270.781C1069.05 266.733 1063.24 260.937 1059.15 253.395C1055.1 245.81 1053.07 236.733 1053.07 226.165C1053.07 216.023 1055.12 207.159 1059.21 199.574C1063.3 191.989 1069.07 186.087 1076.53 181.868C1083.99 177.649 1092.79 175.54 1102.93 175.54C1110.35 175.54 1117.06 176.69 1123.07 178.991C1129.07 181.293 1134.21 184.638 1138.47 189.027C1142.73 193.374 1146.01 198.658 1148.31 204.879C1150.62 211.101 1151.77 218.111 1151.77 225.909V234.091H1064.07V214.659H1119.29C1119.25 211.847 1118.53 209.375 1117.12 207.244C1115.76 205.071 1113.9 203.388 1111.56 202.195C1109.26 200.959 1106.64 200.341 1103.7 200.341C1100.84 200.341 1098.22 200.959 1095.84 202.195C1093.45 203.388 1091.53 205.05 1090.08 207.18C1088.68 209.311 1087.93 211.804 1087.85 214.659V235.625C1087.85 238.778 1088.51 241.591 1089.83 244.062C1091.15 246.534 1093.04 248.473 1095.52 249.879C1097.99 251.286 1100.97 251.989 1104.47 251.989C1106.89 251.989 1109.11 251.648 1111.11 250.966C1113.16 250.284 1114.91 249.304 1116.35 248.026C1117.8 246.705 1118.87 245.128 1119.55 243.295H1151.77C1150.66 250.114 1148.04 256.037 1143.9 261.065C1139.77 266.051 1134.29 269.929 1127.48 272.699C1120.7 275.426 1112.77 276.79 1103.7 276.79Z" fill="white"/>
<path d="M443.659 36.2187C440.82 26.5937 427.18 26.5937 424.341 36.2187L423.653 38.5562C423.229 39.9972 422.487 41.3249 421.483 42.4421C420.479 43.5592 419.238 44.4374 417.85 45.0123C416.462 45.5872 414.963 45.8442 413.463 45.7644C411.963 45.6846 410.5 45.2701 409.181 44.5513L407.05 43.3825C398.229 38.5837 388.584 48.2294 393.389 57.0431L394.551 59.1812C397.618 64.8187 394.709 71.8381 388.556 73.6531L386.219 74.3406C376.594 77.18 376.594 90.82 386.219 93.6594L388.556 94.3469C389.997 94.7711 391.325 95.5125 392.442 96.5167C393.559 97.5209 394.437 98.7623 395.012 100.15C395.587 101.538 395.844 103.037 395.764 104.537C395.685 106.037 395.27 107.5 394.551 108.819L393.382 110.95C388.584 119.771 398.229 129.416 407.043 124.611L409.181 123.449C410.5 122.73 411.963 122.315 413.463 122.236C414.963 122.156 416.462 122.413 417.85 122.988C419.238 123.563 420.479 124.441 421.483 125.558C422.487 126.675 423.229 128.003 423.653 129.444L424.341 131.781C427.18 141.406 440.82 141.406 443.659 131.781L444.347 129.444C444.771 128.003 445.513 126.675 446.517 125.558C447.521 124.441 448.762 123.563 450.15 122.988C451.538 122.413 453.037 122.156 454.537 122.236C456.037 122.315 457.5 122.73 458.819 123.449L460.95 124.618C469.771 129.416 479.416 119.771 474.611 110.957L473.449 108.819C472.73 107.5 472.315 106.037 472.236 104.537C472.156 103.037 472.413 101.538 472.988 100.15C473.563 98.7623 474.441 97.5209 475.558 96.5167C476.675 95.5125 478.003 94.7711 479.444 94.3469L481.781 93.6594C491.406 90.82 491.406 77.18 481.781 74.3406L479.444 73.6531C478.003 73.2289 476.675 72.4875 475.558 71.4833C474.441 70.4791 473.563 69.2377 472.988 67.8499C472.413 66.4621 472.156 64.9633 472.236 63.4633C472.315 61.9633 472.73 60.5002 473.449 59.1812L474.618 57.05C479.416 48.2294 469.771 38.5837 460.957 43.3894L458.819 44.5513C457.5 45.2701 456.037 45.6846 454.537 45.7644C453.037 45.8442 451.538 45.5872 450.15 45.0123C448.762 44.4374 447.521 43.5592 446.517 42.4421C445.513 41.3249 444.771 39.9972 444.347 38.5562L443.659 36.2187ZM434 104.144C428.658 104.144 423.534 102.021 419.756 98.2438C415.979 94.4661 413.856 89.3425 413.856 84C413.856 78.6575 415.979 73.5339 419.756 69.7562C423.534 65.9785 428.658 63.8563 434 63.8563C439.341 63.8563 444.463 65.9778 448.239 69.7542C452.015 73.5306 454.137 78.6525 454.137 83.9931C454.137 89.3338 452.015 94.4557 448.239 98.232C444.463 102.008 439.341 104.13 434 104.13V104.144Z" fill="#83C5BE"/>
<g clip-path="url(#clip0_14_99)">
<path d="M125 136.201C135.382 136.201 143.799 144.618 143.799 155C143.799 165.382 135.382 173.799 125 173.799C114.618 173.799 106.201 165.382 106.201 155C106.201 144.618 114.618 136.201 125 136.201Z" fill="#83C5BE"/>
<path d="M198.242 214.57C205.523 214.57 211.426 220.473 211.426 227.754C211.426 235.035 205.523 240.938 198.242 240.938C190.961 240.938 185.059 235.035 185.059 227.754C185.059 220.473 190.961 214.57 198.242 214.57Z" fill="#F472B6"/>
<path d="M24.4385 168.232C31.7196 168.232 37.6221 174.134 37.6221 181.416C37.6221 188.697 31.7196 194.599 24.4385 194.599C17.1574 194.599 11.2549 188.697 11.2549 181.416C11.2549 174.134 17.1574 168.232 24.4385 168.232Z" fill="#F472B6"/>
<path d="M149.657 42.4512C156.938 42.4512 162.841 48.3537 162.841 55.6348C162.841 62.9159 156.938 68.8184 149.657 68.8184C142.376 68.8184 136.474 62.9159 136.474 55.6348C136.474 48.3537 142.376 42.4512 149.657 42.4512Z" fill="#F472B6"/>
<path d="M125 177.461C120.557 177.461 116.215 176.144 112.521 173.676C108.828 171.208 105.949 167.7 104.249 163.596C102.549 159.491 102.104 154.975 102.97 150.618C103.837 146.261 105.976 142.259 109.118 139.118C112.259 135.977 116.261 133.837 120.618 132.971C124.975 132.104 129.491 132.549 133.595 134.249C137.699 135.949 141.207 138.828 143.675 142.521C146.143 146.215 147.461 150.558 147.461 155C147.454 160.955 145.085 166.664 140.875 170.875C136.664 175.086 130.955 177.454 125 177.461ZM125 139.863C122.006 139.863 119.08 140.751 116.59 142.414C114.101 144.078 112.161 146.442 111.015 149.208C109.87 151.973 109.57 155.017 110.154 157.953C110.738 160.889 112.18 163.586 114.297 165.703C116.413 167.82 119.111 169.262 122.047 169.846C124.983 170.43 128.027 170.13 130.792 168.985C133.558 167.839 135.922 165.899 137.586 163.41C139.249 160.92 140.137 157.994 140.137 155C140.132 150.987 138.536 147.14 135.698 144.302C132.86 141.464 129.013 139.868 125 139.863ZM206.743 155C218.02 166.229 226.494 177.38 231.339 187.407C237.089 199.306 237.751 209.712 233.256 217.498C229.799 223.493 223.656 227.544 214.987 229.578C214.536 233.731 212.556 237.568 209.434 240.344C206.312 243.12 202.27 244.636 198.092 244.599C193.915 244.562 189.9 242.973 186.828 240.142C183.756 237.311 181.846 233.439 181.468 229.278C176.489 228.418 171.268 227.249 165.874 225.789C161.788 241.168 156.368 254.081 150.107 263.292C142.676 274.223 133.994 280 125 280C116.006 280 107.324 274.223 99.8931 263.292C93.6312 254.081 88.2111 241.168 84.1257 225.789C68.7638 229.941 54.8713 231.705 43.7649 230.887C30.5858 229.917 21.2426 225.288 16.7451 217.5C13.2827 211.5 12.8446 204.153 15.4149 195.63C11.7207 193.287 9.08281 189.6 8.05969 185.347C7.03656 181.094 7.70846 176.61 9.93315 172.844C12.1578 169.078 15.7607 166.326 19.9792 165.169C24.1976 164.013 28.7005 164.543 32.5347 166.648C35.748 162.801 39.3367 158.902 43.2563 155C31.9794 143.771 23.506 132.621 18.6606 122.593C12.9104 110.694 12.2483 100.288 16.7454 92.5001C21.2427 84.7119 30.5858 80.0828 43.7649 79.1134C45.537 78.9827 47.3778 78.9175 49.2871 78.9179C59.3396 78.9184 71.2149 80.7228 84.1253 84.2124C88.2108 68.8328 93.631 55.9192 99.8931 46.708C107.324 35.7775 116.006 30.0001 125 30.0001C131.864 30.0001 138.393 33.2414 144.441 39.6197C148.121 38.4181 152.103 38.5215 155.716 39.9124C159.328 41.3033 162.352 43.8967 164.276 47.2559C166.2 50.6151 166.908 54.5348 166.28 58.3548C165.652 62.1748 163.727 65.6618 160.829 68.2284C162.677 73.1808 164.365 78.537 165.873 84.2127C178.785 80.7225 190.659 78.9179 200.712 78.9179C202.62 78.9179 204.461 78.983 206.235 79.1134C219.414 80.0828 228.757 84.7119 233.254 92.4996C237.751 100.288 237.089 110.694 231.339 122.593C226.494 132.62 218.021 143.771 206.743 155ZM198.242 237.276C200.125 237.276 201.966 236.717 203.532 235.671C205.098 234.625 206.318 233.138 207.039 231.398C207.759 229.658 207.948 227.743 207.581 225.896C207.213 224.049 206.306 222.353 204.975 221.021C203.643 219.69 201.947 218.783 200.1 218.415C198.253 218.048 196.338 218.237 194.598 218.957C192.858 219.678 191.371 220.898 190.325 222.464C189.279 224.03 188.721 225.871 188.721 227.754C188.723 230.278 189.728 232.699 191.513 234.484C193.298 236.268 195.718 237.273 198.242 237.276ZM182.407 222.006C183.595 218.734 185.767 215.91 188.624 213.923C191.482 211.936 194.885 210.883 198.366 210.909C201.846 210.935 205.233 212.038 208.061 214.068C210.889 216.097 213.018 218.953 214.157 222.242C220.323 220.645 224.61 217.83 226.911 213.838C233.412 202.581 223.675 182.145 201.461 160.074C192.547 168.282 183.08 175.868 173.126 182.779C172.117 194.857 170.28 206.851 167.627 218.677C172.748 220.068 177.695 221.181 182.407 222.006ZM173.801 173.297C181.6 167.632 189.066 161.523 196.162 155C189.066 148.477 181.6 142.368 173.801 136.703C174.141 142.747 174.316 148.873 174.316 155C174.316 161.128 174.141 167.253 173.801 173.297ZM165.251 188.109C160.186 191.427 154.967 194.643 149.658 197.708C144.329 200.784 138.936 203.695 133.551 206.412C142.358 210.333 151.384 213.743 160.583 216.625C162.685 207.217 164.243 197.696 165.251 188.109ZM125 272.676C138.001 272.676 150.834 254.027 158.84 223.752C147.271 220.138 135.964 215.733 125 210.567C114.036 215.733 102.729 220.138 91.16 223.752C99.1662 254.027 111.998 272.676 125 272.676ZM89.4164 216.626C98.6157 213.743 107.641 210.333 116.448 206.412C111.064 203.695 105.671 200.784 100.342 197.708C95.0321 194.643 89.8131 191.427 84.7484 188.109C85.7561 197.697 87.3146 207.218 89.4164 216.626ZM24.4384 171.894C22.5553 171.894 20.7144 172.452 19.1486 173.499C17.5828 174.545 16.3624 176.032 15.6417 177.772C14.9211 179.512 14.7325 181.426 15.0999 183.273C15.4673 185.12 16.3741 186.817 17.7057 188.148C19.0373 189.48 20.7339 190.387 22.5809 190.754C24.4279 191.121 26.3423 190.933 28.0821 190.212C29.822 189.492 31.309 188.271 32.3553 186.705C33.4015 185.14 33.9599 183.299 33.9599 181.415C33.957 178.891 32.953 176.471 31.168 174.686C29.383 172.901 26.9628 171.897 24.4384 171.894ZM23.0883 96.1627C16.5878 107.419 26.3244 127.855 48.5386 149.926C57.4526 141.718 66.9199 134.132 76.8736 127.221C77.8827 115.143 79.7198 103.149 82.372 91.3233C52.1539 83.12 29.5887 84.905 23.0883 96.1627ZM76.1979 136.703C68.3996 142.368 60.9339 148.477 53.8379 155C60.9339 161.523 68.3996 167.632 76.1979 173.297C75.8586 167.254 75.6834 161.129 75.6834 155C75.6834 148.872 75.8586 142.746 76.1979 136.703ZM76.8736 182.779C66.9201 175.869 57.4529 168.283 48.5389 160.075C44.6833 163.906 41.1663 167.727 38.0351 171.486C39.9832 174.142 41.1091 177.31 41.2731 180.6C41.4371 183.889 40.6321 187.154 38.9579 189.99C37.2837 192.826 34.8138 195.108 31.8547 196.554C28.8955 198 25.5771 198.545 22.311 198.122C20.4693 204.465 20.7249 209.743 23.0883 213.838C29.5887 225.096 52.1541 226.881 82.3721 218.677C79.7199 206.851 77.8827 194.857 76.8736 182.779ZM84.7484 121.891C89.8134 118.573 95.0323 115.357 100.342 112.292C105.672 109.216 111.065 106.305 116.448 103.588C107.641 99.667 98.6156 96.2569 89.4163 93.3746C87.3146 102.783 85.7561 112.304 84.7484 121.891ZM125 37.3243C111.998 37.3243 99.166 55.9736 91.1598 86.2481C102.729 89.8619 114.035 94.2673 125 99.4331C135.963 94.2678 147.269 89.8627 158.836 86.2488C157.482 81.1331 155.976 76.304 154.339 71.8136C150.723 72.8634 146.86 72.6707 143.366 71.2663C139.873 69.862 136.951 67.327 135.068 64.0667C133.185 60.8064 132.449 57.0089 132.979 53.2812C133.508 49.5535 135.271 46.1107 137.987 43.5033C133.735 39.4036 129.379 37.3243 125 37.3243ZM149.657 46.1134C147.774 46.1134 145.933 46.6718 144.367 47.718C142.801 48.7643 141.581 50.2513 140.86 51.9912C140.14 53.731 139.951 55.6454 140.319 57.4924C140.686 59.3394 141.593 61.036 142.924 62.3676C144.256 63.6992 145.953 64.606 147.8 64.9734C149.646 65.3408 151.561 65.1522 153.301 64.4316C155.041 63.7109 156.528 62.4905 157.574 60.9247C158.62 59.3589 159.179 57.5181 159.179 55.6349C159.176 53.1105 158.172 50.6904 156.387 48.9054C154.602 47.1204 152.181 46.1163 149.657 46.1134ZM160.583 93.3745C151.384 96.2569 142.358 99.667 133.551 103.588C138.936 106.306 144.329 109.217 149.658 112.292C154.967 115.357 160.187 118.573 165.251 121.891C164.244 112.304 162.685 102.783 160.583 93.3745ZM166.105 131.274C159.662 126.873 152.908 122.625 145.996 118.636C139.05 114.627 131.996 110.901 125 107.539C118.006 110.901 110.951 114.626 104.003 118.636C97.0922 122.625 90.3383 126.872 83.8943 131.274C83.3083 139.052 83.0076 147.023 83.0076 155C83.0076 162.978 83.3084 170.949 83.8943 178.726C90.3375 183.127 97.0919 187.375 104.003 191.364C110.951 195.374 118.005 199.099 125 202.462C131.995 199.099 139.05 195.373 145.996 191.364C152.908 187.376 159.661 183.128 166.105 178.727C166.691 170.947 166.992 162.976 166.992 155C166.992 147.024 166.691 139.053 166.105 131.274ZM226.911 96.1627C220.411 84.9047 197.846 83.1196 167.627 91.323C170.28 103.149 172.117 115.143 173.126 127.221C183.08 134.132 192.547 141.718 201.461 149.926C223.675 127.855 233.412 107.419 226.911 96.1627Z" fill="#BDBDBD"/>
</g>
<defs>
<clipPath id="clip0_14_99">
<rect width="250" height="250" fill="white" transform="matrix(1 0 0 -1 0 280)"/>
</clipPath>
</defs>
</svg>
